<mxfile host="app.diagrams.net" modified="2024-03-17T22:32:13.446Z" agent="Mozilla/5.0 (Windows NT 10.0; Win64; x64) AppleWebKit/537.36 (KHTML, like Gecko) Chrome/122.0.0.0 Safari/537.36 Edg/122.0.0.0" etag="rGD4hmoBMo_m-ZlEIly1" version="24.0.7" type="device" pages="2">
  <diagram name="Page-1" id="whvgDVyBcfYiKZ6cNrWw">
    <mxGraphModel dx="2074" dy="1124" grid="1" gridSize="10" guides="1" tooltips="1" connect="1" arrows="1" fold="1" page="1" pageScale="1" pageWidth="827" pageHeight="1169" math="0" shadow="0">
      <root>
        <mxCell id="0" />
        <mxCell id="1" parent="0" />
        <mxCell id="b1GXDq0GK6ANwzT-XIJb-61" style="edgeStyle=orthogonalEdgeStyle;rounded=0;orthogonalLoop=1;jettySize=auto;html=1;entryX=0.5;entryY=0;entryDx=0;entryDy=0;endArrow=none;endFill=0;" parent="1" source="b1GXDq0GK6ANwzT-XIJb-1" target="b1GXDq0GK6ANwzT-XIJb-54" edge="1">
          <mxGeometry relative="1" as="geometry" />
        </mxCell>
        <mxCell id="b1GXDq0GK6ANwzT-XIJb-1" value="Procedure TuVCLMain.FormKeyPress&lt;div&gt;(Sender: TObject; Var Key: Char);&lt;/div&gt;" style="rounded=1;whiteSpace=wrap;html=1;arcSize=50;" parent="1" vertex="1">
          <mxGeometry x="40" y="40" width="160" height="60" as="geometry" />
        </mxCell>
        <mxCell id="b1GXDq0GK6ANwzT-XIJb-2" style="edgeStyle=orthogonalEdgeStyle;rounded=0;orthogonalLoop=1;jettySize=auto;html=1;entryX=0.5;entryY=0;entryDx=0;entryDy=0;endArrow=none;endFill=0;" parent="1" source="b1GXDq0GK6ANwzT-XIJb-3" edge="1">
          <mxGeometry relative="1" as="geometry">
            <mxPoint x="325" y="200" as="targetPoint" />
          </mxGeometry>
        </mxCell>
        <mxCell id="b1GXDq0GK6ANwzT-XIJb-3" value="(Key In RIGHT_KEYS)" style="rhombus;whiteSpace=wrap;html=1;" parent="1" vertex="1">
          <mxGeometry x="40" y="120" width="160" height="60" as="geometry" />
        </mxCell>
        <mxCell id="b1GXDq0GK6ANwzT-XIJb-5" value="" style="endArrow=classic;html=1;rounded=0;exitX=0.5;exitY=1;exitDx=0;exitDy=0;" parent="1" edge="1">
          <mxGeometry width="50" height="50" relative="1" as="geometry">
            <mxPoint x="325" y="470" as="sourcePoint" />
            <mxPoint x="121" y="520" as="targetPoint" />
            <Array as="points">
              <mxPoint x="325" y="520" />
            </Array>
          </mxGeometry>
        </mxCell>
        <mxCell id="b1GXDq0GK6ANwzT-XIJb-6" value="Да" style="text;html=1;align=center;verticalAlign=middle;resizable=0;points=[];autosize=1;strokeColor=none;fillColor=none;" parent="1" vertex="1">
          <mxGeometry x="195" y="120" width="40" height="30" as="geometry" />
        </mxCell>
        <mxCell id="b1GXDq0GK6ANwzT-XIJb-7" value="Нет" style="text;html=1;align=center;verticalAlign=middle;resizable=0;points=[];autosize=1;strokeColor=none;fillColor=none;" parent="1" vertex="1">
          <mxGeometry x="85" y="180" width="40" height="30" as="geometry" />
        </mxCell>
        <mxCell id="b1GXDq0GK6ANwzT-XIJb-8" style="edgeStyle=orthogonalEdgeStyle;rounded=0;orthogonalLoop=1;jettySize=auto;html=1;entryX=0.5;entryY=0;entryDx=0;entryDy=0;endArrow=none;endFill=0;" parent="1" source="b1GXDq0GK6ANwzT-XIJb-9" target="b1GXDq0GK6ANwzT-XIJb-14" edge="1">
          <mxGeometry relative="1" as="geometry">
            <mxPoint x="525" y="290" as="targetPoint" />
          </mxGeometry>
        </mxCell>
        <mxCell id="b1GXDq0GK6ANwzT-XIJb-17" style="edgeStyle=orthogonalEdgeStyle;rounded=0;orthogonalLoop=1;jettySize=auto;html=1;exitX=0.5;exitY=1;exitDx=0;exitDy=0;entryX=0.5;entryY=0;entryDx=0;entryDy=0;endArrow=none;endFill=0;" parent="1" source="b1GXDq0GK6ANwzT-XIJb-9" target="b1GXDq0GK6ANwzT-XIJb-16" edge="1">
          <mxGeometry relative="1" as="geometry" />
        </mxCell>
        <mxCell id="b1GXDq0GK6ANwzT-XIJb-9" value="ImKorablick.Left &amp;gt; UVCLMain.Width" style="rhombus;whiteSpace=wrap;html=1;" parent="1" vertex="1">
          <mxGeometry x="240" y="210" width="160" height="60" as="geometry" />
        </mxCell>
        <mxCell id="b1GXDq0GK6ANwzT-XIJb-11" value="" style="endArrow=classic;html=1;rounded=0;exitX=0.5;exitY=1;exitDx=0;exitDy=0;" parent="1" source="b1GXDq0GK6ANwzT-XIJb-14" edge="1">
          <mxGeometry width="50" height="50" relative="1" as="geometry">
            <mxPoint x="525" y="330" as="sourcePoint" />
            <mxPoint x="321" y="380" as="targetPoint" />
            <Array as="points">
              <mxPoint x="520" y="380" />
            </Array>
          </mxGeometry>
        </mxCell>
        <mxCell id="b1GXDq0GK6ANwzT-XIJb-12" value="Да" style="text;html=1;align=center;verticalAlign=middle;resizable=0;points=[];autosize=1;strokeColor=none;fillColor=none;" parent="1" vertex="1">
          <mxGeometry x="395" y="210" width="40" height="30" as="geometry" />
        </mxCell>
        <mxCell id="b1GXDq0GK6ANwzT-XIJb-13" value="Нет" style="text;html=1;align=center;verticalAlign=middle;resizable=0;points=[];autosize=1;strokeColor=none;fillColor=none;" parent="1" vertex="1">
          <mxGeometry x="285" y="270" width="40" height="30" as="geometry" />
        </mxCell>
        <mxCell id="b1GXDq0GK6ANwzT-XIJb-14" value="ImKorablick.Left := -ImKorablick.Width;" style="rounded=0;whiteSpace=wrap;html=1;" parent="1" vertex="1">
          <mxGeometry x="440" y="270" width="160" height="60" as="geometry" />
        </mxCell>
        <mxCell id="b1GXDq0GK6ANwzT-XIJb-16" value="ImKorablick.Left := ImKorablick.Left + FSpeed;" style="rounded=0;whiteSpace=wrap;html=1;" parent="1" vertex="1">
          <mxGeometry x="240" y="410" width="160" height="60" as="geometry" />
        </mxCell>
        <mxCell id="b1GXDq0GK6ANwzT-XIJb-18" style="edgeStyle=orthogonalEdgeStyle;rounded=0;orthogonalLoop=1;jettySize=auto;html=1;entryX=0.5;entryY=0;entryDx=0;entryDy=0;endArrow=none;endFill=0;" parent="1" source="b1GXDq0GK6ANwzT-XIJb-19" edge="1">
          <mxGeometry relative="1" as="geometry">
            <mxPoint x="325" y="640" as="targetPoint" />
          </mxGeometry>
        </mxCell>
        <mxCell id="b1GXDq0GK6ANwzT-XIJb-19" value="(Key In LEFT_KEYS)" style="rhombus;whiteSpace=wrap;html=1;" parent="1" vertex="1">
          <mxGeometry x="40" y="560" width="160" height="60" as="geometry" />
        </mxCell>
        <mxCell id="b1GXDq0GK6ANwzT-XIJb-20" value="" style="endArrow=classic;html=1;rounded=0;exitX=0.5;exitY=1;exitDx=0;exitDy=0;" parent="1" edge="1">
          <mxGeometry width="50" height="50" relative="1" as="geometry">
            <mxPoint x="325" y="910" as="sourcePoint" />
            <mxPoint x="121" y="960" as="targetPoint" />
            <Array as="points">
              <mxPoint x="325" y="960" />
            </Array>
          </mxGeometry>
        </mxCell>
        <mxCell id="b1GXDq0GK6ANwzT-XIJb-21" value="Да" style="text;html=1;align=center;verticalAlign=middle;resizable=0;points=[];autosize=1;strokeColor=none;fillColor=none;" parent="1" vertex="1">
          <mxGeometry x="195" y="560" width="40" height="30" as="geometry" />
        </mxCell>
        <mxCell id="b1GXDq0GK6ANwzT-XIJb-22" value="Нет" style="text;html=1;align=center;verticalAlign=middle;resizable=0;points=[];autosize=1;strokeColor=none;fillColor=none;" parent="1" vertex="1">
          <mxGeometry x="85" y="620" width="40" height="30" as="geometry" />
        </mxCell>
        <mxCell id="b1GXDq0GK6ANwzT-XIJb-23" style="edgeStyle=orthogonalEdgeStyle;rounded=0;orthogonalLoop=1;jettySize=auto;html=1;entryX=0.5;entryY=0;entryDx=0;entryDy=0;endArrow=none;endFill=0;" parent="1" source="b1GXDq0GK6ANwzT-XIJb-25" target="b1GXDq0GK6ANwzT-XIJb-29" edge="1">
          <mxGeometry relative="1" as="geometry">
            <mxPoint x="525" y="730" as="targetPoint" />
          </mxGeometry>
        </mxCell>
        <mxCell id="b1GXDq0GK6ANwzT-XIJb-24" style="edgeStyle=orthogonalEdgeStyle;rounded=0;orthogonalLoop=1;jettySize=auto;html=1;exitX=0.5;exitY=1;exitDx=0;exitDy=0;entryX=0.5;entryY=0;entryDx=0;entryDy=0;endArrow=none;endFill=0;" parent="1" source="b1GXDq0GK6ANwzT-XIJb-25" target="b1GXDq0GK6ANwzT-XIJb-30" edge="1">
          <mxGeometry relative="1" as="geometry" />
        </mxCell>
        <mxCell id="b1GXDq0GK6ANwzT-XIJb-25" value="ImKorablick.Left &amp;lt; -ImKorablick.Width" style="rhombus;whiteSpace=wrap;html=1;" parent="1" vertex="1">
          <mxGeometry x="240" y="650" width="160" height="60" as="geometry" />
        </mxCell>
        <mxCell id="b1GXDq0GK6ANwzT-XIJb-26" value="" style="endArrow=classic;html=1;rounded=0;exitX=0.5;exitY=1;exitDx=0;exitDy=0;" parent="1" source="b1GXDq0GK6ANwzT-XIJb-29" edge="1">
          <mxGeometry width="50" height="50" relative="1" as="geometry">
            <mxPoint x="525" y="770" as="sourcePoint" />
            <mxPoint x="320" y="820" as="targetPoint" />
            <Array as="points">
              <mxPoint x="520" y="820" />
            </Array>
          </mxGeometry>
        </mxCell>
        <mxCell id="b1GXDq0GK6ANwzT-XIJb-27" value="Да" style="text;html=1;align=center;verticalAlign=middle;resizable=0;points=[];autosize=1;strokeColor=none;fillColor=none;" parent="1" vertex="1">
          <mxGeometry x="395" y="650" width="40" height="30" as="geometry" />
        </mxCell>
        <mxCell id="b1GXDq0GK6ANwzT-XIJb-28" value="Нет" style="text;html=1;align=center;verticalAlign=middle;resizable=0;points=[];autosize=1;strokeColor=none;fillColor=none;" parent="1" vertex="1">
          <mxGeometry x="285" y="710" width="40" height="30" as="geometry" />
        </mxCell>
        <mxCell id="b1GXDq0GK6ANwzT-XIJb-29" value="ImKorablick.Left := UVCLMain.Width;" style="rounded=0;whiteSpace=wrap;html=1;" parent="1" vertex="1">
          <mxGeometry x="440" y="710" width="160" height="60" as="geometry" />
        </mxCell>
        <mxCell id="b1GXDq0GK6ANwzT-XIJb-30" value="ImKorablick.Left := ImKorablick.Left - FSpeed;" style="rounded=0;whiteSpace=wrap;html=1;" parent="1" vertex="1">
          <mxGeometry x="240" y="850" width="160" height="60" as="geometry" />
        </mxCell>
        <mxCell id="b1GXDq0GK6ANwzT-XIJb-54" value="A" style="ellipse;whiteSpace=wrap;html=1;aspect=fixed;" parent="1" vertex="1">
          <mxGeometry x="100" y="990" width="40" height="40" as="geometry" />
        </mxCell>
        <mxCell id="b1GXDq0GK6ANwzT-XIJb-65" style="edgeStyle=orthogonalEdgeStyle;rounded=0;orthogonalLoop=1;jettySize=auto;html=1;exitX=0.5;exitY=1;exitDx=0;exitDy=0;entryX=0.5;entryY=0;entryDx=0;entryDy=0;endArrow=none;endFill=0;" parent="1" source="b1GXDq0GK6ANwzT-XIJb-62" target="b1GXDq0GK6ANwzT-XIJb-64" edge="1">
          <mxGeometry relative="1" as="geometry" />
        </mxCell>
        <mxCell id="b1GXDq0GK6ANwzT-XIJb-62" value="Procedure TuVCLMain.PrintSpeed;" style="rounded=1;whiteSpace=wrap;html=1;arcSize=50;" parent="1" vertex="1">
          <mxGeometry x="630" y="40" width="160" height="60" as="geometry" />
        </mxCell>
        <mxCell id="b1GXDq0GK6ANwzT-XIJb-63" value="LbSpeed.Caption := IntToStr(FSpeed) + &#39; Км/ч&#39;;" style="rounded=0;whiteSpace=wrap;html=1;" parent="1" vertex="1">
          <mxGeometry x="630" y="120" width="160" height="60" as="geometry" />
        </mxCell>
        <mxCell id="b1GXDq0GK6ANwzT-XIJb-64" value="Конец" style="rounded=1;whiteSpace=wrap;html=1;arcSize=50;" parent="1" vertex="1">
          <mxGeometry x="630" y="200" width="160" height="60" as="geometry" />
        </mxCell>
        <mxCell id="b1GXDq0GK6ANwzT-XIJb-67" style="edgeStyle=orthogonalEdgeStyle;rounded=0;orthogonalLoop=1;jettySize=auto;html=1;exitX=0.5;exitY=1;exitDx=0;exitDy=0;entryX=0.5;entryY=0;entryDx=0;entryDy=0;endArrow=none;endFill=0;" parent="1" source="b1GXDq0GK6ANwzT-XIJb-68" target="b1GXDq0GK6ANwzT-XIJb-70" edge="1">
          <mxGeometry relative="1" as="geometry" />
        </mxCell>
        <mxCell id="b1GXDq0GK6ANwzT-XIJb-68" value="Procedure TuVCLMain.ChangeImage();" style="rounded=1;whiteSpace=wrap;html=1;arcSize=50;" parent="1" vertex="1">
          <mxGeometry x="630" y="410" width="160" height="60" as="geometry" />
        </mxCell>
        <mxCell id="b1GXDq0GK6ANwzT-XIJb-69" value="ImSpeedometer.Picture.&lt;div&gt;Assign(Nil);&lt;/div&gt;" style="rounded=0;whiteSpace=wrap;html=1;" parent="1" vertex="1">
          <mxGeometry x="630" y="490" width="160" height="60" as="geometry" />
        </mxCell>
        <mxCell id="b1GXDq0GK6ANwzT-XIJb-70" value="Конец" style="rounded=1;whiteSpace=wrap;html=1;arcSize=50;" parent="1" vertex="1">
          <mxGeometry x="630" y="650" width="160" height="60" as="geometry" />
        </mxCell>
        <mxCell id="b1GXDq0GK6ANwzT-XIJb-71" value="ImLSpeeds.GetBitmap&lt;div&gt;(Integer(FSpeedType), ImSpeedometer.&lt;/div&gt;&lt;div&gt;Picture.Bitmap);&lt;br&gt;&lt;/div&gt;" style="rounded=0;whiteSpace=wrap;html=1;" parent="1" vertex="1">
          <mxGeometry x="630" y="570" width="160" height="60" as="geometry" />
        </mxCell>
      </root>
    </mxGraphModel>
  </diagram>
  <diagram id="_7lYBly9H7rN-q_ESGsE" name="Page-2">
    <mxGraphModel dx="1247" dy="1124" grid="1" gridSize="10" guides="1" tooltips="1" connect="1" arrows="1" fold="1" page="1" pageScale="1" pageWidth="827" pageHeight="1169" math="0" shadow="0">
      <root>
        <mxCell id="0" />
        <mxCell id="1" parent="0" />
        <mxCell id="Z8iygIkLX0eHPkNNi4Ku-1" style="edgeStyle=orthogonalEdgeStyle;rounded=0;orthogonalLoop=1;jettySize=auto;html=1;entryX=0.5;entryY=0;entryDx=0;entryDy=0;endArrow=none;endFill=0;" parent="1" source="Z8iygIkLX0eHPkNNi4Ku-3" edge="1">
          <mxGeometry relative="1" as="geometry">
            <mxPoint x="1336" y="185" as="targetPoint" />
          </mxGeometry>
        </mxCell>
        <mxCell id="Z8iygIkLX0eHPkNNi4Ku-2" style="edgeStyle=orthogonalEdgeStyle;rounded=0;orthogonalLoop=1;jettySize=auto;html=1;exitX=0.5;exitY=1;exitDx=0;exitDy=0;entryX=0.5;entryY=0;entryDx=0;entryDy=0;endArrow=none;endFill=0;" parent="1" source="Z8iygIkLX0eHPkNNi4Ku-3" target="Z8iygIkLX0eHPkNNi4Ku-13" edge="1">
          <mxGeometry relative="1" as="geometry" />
        </mxCell>
        <mxCell id="Z8iygIkLX0eHPkNNi4Ku-3" value="" style="rhombus;whiteSpace=wrap;html=1;" parent="1" vertex="1">
          <mxGeometry x="1050" y="110" width="160" height="60" as="geometry" />
        </mxCell>
        <mxCell id="Z8iygIkLX0eHPkNNi4Ku-4" value="" style="endArrow=classic;html=1;rounded=0;exitX=0.5;exitY=1;exitDx=0;exitDy=0;" parent="1" edge="1">
          <mxGeometry width="50" height="50" relative="1" as="geometry">
            <mxPoint x="1335" y="230" as="sourcePoint" />
            <mxPoint x="1135" y="280" as="targetPoint" />
            <Array as="points">
              <mxPoint x="1335" y="280" />
            </Array>
          </mxGeometry>
        </mxCell>
        <mxCell id="Z8iygIkLX0eHPkNNi4Ku-5" value="Да" style="text;html=1;align=center;verticalAlign=middle;resizable=0;points=[];autosize=1;strokeColor=none;fillColor=none;" parent="1" vertex="1">
          <mxGeometry x="1205" y="110" width="40" height="30" as="geometry" />
        </mxCell>
        <mxCell id="Z8iygIkLX0eHPkNNi4Ku-6" value="Нет" style="text;html=1;align=center;verticalAlign=middle;resizable=0;points=[];autosize=1;strokeColor=none;fillColor=none;" parent="1" vertex="1">
          <mxGeometry x="1095" y="170" width="40" height="30" as="geometry" />
        </mxCell>
        <mxCell id="Z8iygIkLX0eHPkNNi4Ku-7" value="" style="strokeWidth=1;html=1;shape=mxgraph.flowchart.annotation_2;align=left;labelPosition=right;pointerEvents=1;rotation=-180;" parent="1" vertex="1">
          <mxGeometry x="980" y="110" width="40" height="60" as="geometry" />
        </mxCell>
        <mxCell id="Z8iygIkLX0eHPkNNi4Ku-8" style="edgeStyle=orthogonalEdgeStyle;rounded=0;orthogonalLoop=1;jettySize=auto;html=1;entryX=0;entryY=0.5;entryDx=0;entryDy=0;entryPerimeter=0;dashed=1;dashPattern=8 8;endArrow=none;endFill=0;" parent="1" source="Z8iygIkLX0eHPkNNi4Ku-3" target="Z8iygIkLX0eHPkNNi4Ku-7" edge="1">
          <mxGeometry relative="1" as="geometry" />
        </mxCell>
        <mxCell id="Z8iygIkLX0eHPkNNi4Ku-9" value="(Key = &#39;s&#39;) And&amp;nbsp;&lt;div&gt;(FSpeed &amp;lt;&amp;gt; MAX_Speed)&lt;/div&gt;" style="text;html=1;align=center;verticalAlign=middle;whiteSpace=wrap;rounded=0;" parent="1" vertex="1">
          <mxGeometry x="850" y="110" width="150" height="60" as="geometry" />
        </mxCell>
        <mxCell id="Z8iygIkLX0eHPkNNi4Ku-10" value="&lt;div&gt;Inc(FSpeed, CHANGE_COEF);&lt;/div&gt;&lt;div&gt;PrintSpeed();&lt;/div&gt;" style="rounded=0;whiteSpace=wrap;html=1;" parent="1" vertex="1">
          <mxGeometry x="1261" y="185" width="160" height="60" as="geometry" />
        </mxCell>
        <mxCell id="Z8iygIkLX0eHPkNNi4Ku-11" style="edgeStyle=orthogonalEdgeStyle;rounded=0;orthogonalLoop=1;jettySize=auto;html=1;entryX=0.5;entryY=0;entryDx=0;entryDy=0;endArrow=none;endFill=0;" parent="1" source="Z8iygIkLX0eHPkNNi4Ku-13" edge="1">
          <mxGeometry relative="1" as="geometry">
            <mxPoint x="1336" y="405" as="targetPoint" />
          </mxGeometry>
        </mxCell>
        <mxCell id="Z8iygIkLX0eHPkNNi4Ku-12" style="edgeStyle=orthogonalEdgeStyle;rounded=0;orthogonalLoop=1;jettySize=auto;html=1;exitX=0.5;exitY=1;exitDx=0;exitDy=0;entryX=0.5;entryY=0;entryDx=0;entryDy=0;endArrow=none;endFill=0;" parent="1" source="Z8iygIkLX0eHPkNNi4Ku-13" target="Z8iygIkLX0eHPkNNi4Ku-22" edge="1">
          <mxGeometry relative="1" as="geometry" />
        </mxCell>
        <mxCell id="Z8iygIkLX0eHPkNNi4Ku-13" value="" style="rhombus;whiteSpace=wrap;html=1;" parent="1" vertex="1">
          <mxGeometry x="1050" y="330" width="160" height="60" as="geometry" />
        </mxCell>
        <mxCell id="Z8iygIkLX0eHPkNNi4Ku-14" value="" style="endArrow=classic;html=1;rounded=0;exitX=0.5;exitY=1;exitDx=0;exitDy=0;" parent="1" edge="1">
          <mxGeometry width="50" height="50" relative="1" as="geometry">
            <mxPoint x="1335" y="450" as="sourcePoint" />
            <mxPoint x="1135" y="500" as="targetPoint" />
            <Array as="points">
              <mxPoint x="1335" y="500" />
            </Array>
          </mxGeometry>
        </mxCell>
        <mxCell id="Z8iygIkLX0eHPkNNi4Ku-15" value="Да" style="text;html=1;align=center;verticalAlign=middle;resizable=0;points=[];autosize=1;strokeColor=none;fillColor=none;" parent="1" vertex="1">
          <mxGeometry x="1205" y="330" width="40" height="30" as="geometry" />
        </mxCell>
        <mxCell id="Z8iygIkLX0eHPkNNi4Ku-16" value="Нет" style="text;html=1;align=center;verticalAlign=middle;resizable=0;points=[];autosize=1;strokeColor=none;fillColor=none;" parent="1" vertex="1">
          <mxGeometry x="1095" y="390" width="40" height="30" as="geometry" />
        </mxCell>
        <mxCell id="Z8iygIkLX0eHPkNNi4Ku-17" value="" style="strokeWidth=1;html=1;shape=mxgraph.flowchart.annotation_2;align=left;labelPosition=right;pointerEvents=1;rotation=-180;" parent="1" vertex="1">
          <mxGeometry x="980" y="330" width="40" height="60" as="geometry" />
        </mxCell>
        <mxCell id="Z8iygIkLX0eHPkNNi4Ku-18" style="edgeStyle=orthogonalEdgeStyle;rounded=0;orthogonalLoop=1;jettySize=auto;html=1;entryX=0;entryY=0.5;entryDx=0;entryDy=0;entryPerimeter=0;dashed=1;dashPattern=8 8;endArrow=none;endFill=0;" parent="1" source="Z8iygIkLX0eHPkNNi4Ku-13" target="Z8iygIkLX0eHPkNNi4Ku-17" edge="1">
          <mxGeometry relative="1" as="geometry" />
        </mxCell>
        <mxCell id="Z8iygIkLX0eHPkNNi4Ku-19" value="(Key = &#39;b&#39;) And (FSpeed &amp;lt;&amp;gt; MIN_Speed)" style="text;html=1;align=center;verticalAlign=middle;whiteSpace=wrap;rounded=0;" parent="1" vertex="1">
          <mxGeometry x="850" y="330" width="150" height="60" as="geometry" />
        </mxCell>
        <mxCell id="Z8iygIkLX0eHPkNNi4Ku-20" value="&lt;div&gt;Dec(FSpeed, CHANGE_COEF);&lt;/div&gt;&lt;div&gt;PrintSpeed();&lt;/div&gt;" style="rounded=0;whiteSpace=wrap;html=1;" parent="1" vertex="1">
          <mxGeometry x="1261" y="405" width="160" height="60" as="geometry" />
        </mxCell>
        <mxCell id="Z8iygIkLX0eHPkNNi4Ku-21" style="edgeStyle=orthogonalEdgeStyle;rounded=0;orthogonalLoop=1;jettySize=auto;html=1;entryX=0.5;entryY=0;entryDx=0;entryDy=0;endArrow=none;endFill=0;" parent="1" source="Z8iygIkLX0eHPkNNi4Ku-22" target="Z8iygIkLX0eHPkNNi4Ku-23" edge="1">
          <mxGeometry relative="1" as="geometry" />
        </mxCell>
        <mxCell id="Z8iygIkLX0eHPkNNi4Ku-22" value="&lt;div&gt;FSpeedType := TSpeed(FSpeed div COEF);&lt;/div&gt;&lt;div&gt;&amp;nbsp; &amp;nbsp; ChangeImage();&lt;/div&gt;" style="rounded=0;whiteSpace=wrap;html=1;" parent="1" vertex="1">
          <mxGeometry x="1050" y="530" width="160" height="60" as="geometry" />
        </mxCell>
        <mxCell id="Z8iygIkLX0eHPkNNi4Ku-23" value="Конец" style="rounded=1;whiteSpace=wrap;html=1;arcSize=50;" parent="1" vertex="1">
          <mxGeometry x="1050" y="610" width="160" height="60" as="geometry" />
        </mxCell>
        <mxCell id="Z8iygIkLX0eHPkNNi4Ku-24" style="edgeStyle=orthogonalEdgeStyle;rounded=0;orthogonalLoop=1;jettySize=auto;html=1;entryX=0.5;entryY=0;entryDx=0;entryDy=0;endArrow=none;endFill=0;" parent="1" source="Z8iygIkLX0eHPkNNi4Ku-25" target="Z8iygIkLX0eHPkNNi4Ku-3" edge="1">
          <mxGeometry relative="1" as="geometry" />
        </mxCell>
        <mxCell id="Z8iygIkLX0eHPkNNi4Ku-25" value="A" style="ellipse;whiteSpace=wrap;html=1;aspect=fixed;" parent="1" vertex="1">
          <mxGeometry x="1110" y="50" width="40" height="40" as="geometry" />
        </mxCell>
      </root>
    </mxGraphModel>
  </diagram>
</mxfile>
